HIERARCHY
ROOT Hips
{
	OFFSET 0.000000 0.000000 0.000000
	CHANNELS 6 Xposition Yposition Zposition Xrotation Yrotation Zrotation
	JOINT LeftUpLeg_virtual
	{
		OFFSET 0.000000 0.000000 0.000000
		CHANNELS 3 Xrotation Yrotation Zrotation
		JOINT LeftUpLeg
		{
			OFFSET 10.205400 -3.823500 0.155100
			CHANNELS 3 Xrotation Yrotation Zrotation
			JOINT LeftLeg
			{
				OFFSET 0.708757 -12.982077 0.567790
				CHANNELS 3 Xrotation Yrotation Zrotation
				JOINT LeftFoot
				{
					OFFSET -0.708756 -10.717838 -2.184338
					CHANNELS 3 Xrotation Yrotation Zrotation
					JOINT LeftToeBase
					{
						OFFSET 0.108149 -7.191104 7.560241
						CHANNELS 3 Xrotation Yrotation Zrotation
						JOINT LeftToe_End
						{
							OFFSET 0.070230 0.081724 4.490308
							CHANNELS 3 Xrotation Yrotation Zrotation
							End Site
							{
								OFFSET 0 0 0
							}
						}
					}
				}
			}
		}
	}
	JOINT RightUpLeg_virtual
	{
		OFFSET 0.000000 0.000000 0.000000
		CHANNELS 3 Xrotation Yrotation Zrotation
		JOINT RightUpLeg
		{
			OFFSET -10.205400 -3.823500 0.005500
			CHANNELS 3 Xrotation Yrotation Zrotation
			JOINT RightLeg
			{
				OFFSET -0.708756 -12.982134 0.610632
				CHANNELS 3 Xrotation Yrotation Zrotation
				JOINT RightFoot
				{
					OFFSET 0.708754 -10.717769 -1.945823
					CHANNELS 3 Xrotation Yrotation Zrotation
					JOINT RightToeBase
					{
						OFFSET -0.108140 -7.191069 7.372968
						CHANNELS 3 Xrotation Yrotation Zrotation
						JOINT RightToe_End
						{
							OFFSET -0.070227 0.081735 4.479403
							CHANNELS 3 Xrotation Yrotation Zrotation
							End Site
							{
								OFFSET 0 0 0
							}
						}
					}
				}
			}
		}
	}
	JOINT Spine_virtual
	{
		OFFSET 0.000000 0.000000 0.000000
		CHANNELS 3 Xrotation Yrotation Zrotation
		JOINT Spine
		{
			OFFSET 0.000000 6.876099 0.125700
			CHANNELS 3 Xrotation Yrotation Zrotation
			JOINT Spine1
			{
				OFFSET 0.000000 5.730043 0.104720
				CHANNELS 3 Xrotation Yrotation Zrotation
				JOINT Spine1_split
				{
					OFFSET 0.000000 5.730043 0.104720
					CHANNELS 3 Xrotation Yrotation Zrotation
					JOINT Spine2
					{
						OFFSET 0.000000 5.730043 0.104720
						CHANNELS 3 Xrotation Yrotation Zrotation
						JOINT Neck_virtual
						{
							OFFSET 0.000000 0.000000 0.000000
							CHANNELS 3 Xrotation Yrotation Zrotation
							JOINT Neck
							{
								OFFSET 0.000000 10.314075 0.188496
								CHANNELS 3 Xrotation Yrotation Zrotation
								JOINT Head
								{
									OFFSET 0.000000 7.643700 -2.377400
									CHANNELS 3 Xrotation Yrotation Zrotation
									JOINT HeadTop_End
									{
										OFFSET 0.000000 43.788605 -13.619600
										CHANNELS 3 Xrotation Yrotation Zrotation
										End Site
										{
											OFFSET 0 0 0
										}
									}
								}
							}
						}
						JOINT LeftShoulder_virtual
						{
							OFFSET 0.000000 0.000000 0.000000
							CHANNELS 3 Xrotation Yrotation Zrotation
							JOINT LeftShoulder
							{
								OFFSET 2.196100 4.412489 0.087492
								CHANNELS 3 Xrotation Yrotation Zrotation
								JOINT LeftShoulder_split
								{
									OFFSET 2.196100 4.412489 0.087492
									CHANNELS 3 Xrotation Yrotation Zrotation
									JOINT LeftArm
									{
										OFFSET 8.771219 -2.981674 -0.026999
										CHANNELS 3 Xrotation Yrotation Zrotation
										JOINT LeftForeArm
										{
											OFFSET 8.512804 0.000000 -0.000000
											CHANNELS 3 Xrotation Yrotation Zrotation
											JOINT LeftHand
											{
												OFFSET 18.484802 0.000000 -0.000000
												CHANNELS 3 Xrotation Yrotation Zrotation
												End Site
												{
													OFFSET 0 0 0
												}
											}
										}
									}
								}
							}
						}
						JOINT RightShoulder_virtual
						{
							OFFSET 0.000000 0.000000 0.000000
							CHANNELS 3 Xrotation Yrotation Zrotation
							JOINT RightShoulder
							{
								OFFSET -2.196100 4.412496 0.070690
								CHANNELS 3 Xrotation Yrotation Zrotation
								JOINT RightShoulder_split
								{
									OFFSET -2.196100 4.412496 0.070690
									CHANNELS 3 Xrotation Yrotation Zrotation
									JOINT RightArm
									{
										OFFSET -8.771282 -2.981682 -0.094208
										CHANNELS 3 Xrotation Yrotation Zrotation
										JOINT RightForeArm
										{
											OFFSET -8.494598 0.000000 0.000000
											CHANNELS 3 Xrotation Yrotation Zrotation
											JOINT RightHand
											{
												OFFSET -18.483803 0.000000 0.000001
												CHANNELS 3 Xrotation Yrotation Zrotation
												End Site
												{
													OFFSET 0 0 0
												}
											}
										}
									}
								}
							}
						}
					}
				}
			}
		}
	}
}
MOTION
Frames: 4
Frame Time: 0.03333333
0.613764 49.599449 7.371971 0.000000 0.000000 0.000000 5.811471 -39.738939 4.320369 -80.345175 -18.185532 24.020454 83.307674 -0.475032 2.433244 -2.256064 3.868249 -2.337994 -9.802431 1.098257 0.884072 0.000000 0.000000 0.000000 5.628442 -39.563440 3.619068 -117.395365 -38.012943 -1.105556 115.953267 16.850118 -12.203369 40.056061 6.456896 27.685463 8.470770 1.953109 -3.152586 0.000000 0.000000 0.000000 4.458601 -38.823226 2.156301 30.795660 -5.344936 -7.737128 12.108192 1.143386 -3.306426 0.457375 -0.471707 1.302545 0.000000 0.000000 0.000000 11.958728 1.327884 -2.444291 -7.456395 19.067793 -13.223528 -25.494830 12.055314 3.849747 0.000000 0.000000 0.000000 13.405483 1.511542 -2.860163 12.069410 -9.865133 -0.537907 0.253187 -2.306072 -5.310083 -53.650371 3.596983 2.654861 47.185675 -18.434699 30.828014 0.000000 0.000000 0.000000 13.880968 1.566429 -2.631500 17.581011 21.561333 -5.176073 1.633259 6.433208 3.061601 -34.871807 -16.097043 0.847889 -50.280731 47.750693 40.268336 0.000000 0.000000 0.000000 
0.611988 49.611210 7.378997 0.000000 0.000000 0.000000 5.801637 -39.558895 4.296710 -80.425676 -18.129547 24.050877 83.294806 -0.452000 2.360841 -2.048914 3.892666 -2.295699 -9.803658 1.105438 0.849164 0.000000 0.000000 0.000000 5.624645 -39.481386 3.596609 -117.464063 -37.995854 -1.044373 115.956217 16.835766 -12.314572 40.048288 6.560386 27.716208 8.490508 1.958523 -3.166845 0.000000 0.000000 0.000000 4.472751 -38.727880 2.108895 30.719612 -5.411442 -7.738617 12.142697 1.104359 -3.304943 0.451765 -0.477705 1.180969 0.000000 0.000000 0.000000 11.986540 1.312312 -2.446293 -7.576174 19.118616 -13.183342 -25.490870 12.009790 3.936727 0.000000 0.000000 0.000000 13.432598 1.488481 -2.806227 12.252640 -10.188919 0.283780 0.126191 -2.199044 -4.867636 -54.984645 2.814137 3.050827 47.228105 -18.667397 30.959909 0.000000 0.000000 0.000000 13.910593 1.516137 -2.624611 17.675423 21.264942 -5.647851 1.800179 6.507114 2.749637 -35.398780 -16.072043 0.549536 -50.388273 48.104998 40.303826 0.000000 0.000000 0.000000 
0.637547 49.618790 7.367936 0.000000 0.000000 0.000000 5.762720 -39.178184 4.179368 -80.626572 -18.148282 23.961641 83.293973 -0.448836 2.346799 -1.711696 3.815894 -2.081906 -9.778585 1.105219 0.848420 0.000000 0.000000 0.000000 5.586430 -39.177692 3.471134 -117.630365 -37.990164 -0.959818 116.045734 16.801246 -12.458995 40.222342 6.765053 27.871215 8.391295 1.953760 -3.130577 0.000000 0.000000 0.000000 4.534169 -38.510116 2.043714 30.625038 -5.491356 -7.786585 12.164701 1.067544 -3.322857 0.367773 -0.475065 1.136204 0.000000 0.000000 0.000000 12.047371 1.311912 -2.461331 -7.637989 19.106220 -13.104921 -25.597160 11.909608 4.066278 0.000000 0.000000 0.000000 13.469874 1.488054 -2.757286 12.547108 -10.657016 1.686247 0.329109 -1.797422 -4.704546 -56.563409 1.330114 3.803118 47.327402 -18.975181 31.080113 0.000000 0.000000 0.000000 13.932213 1.475870 -2.638939 17.973498 20.890487 -6.648658 1.943007 6.508935 2.739133 -36.422199 -16.228982 -0.110409 -51.255812 48.889787 41.189411 0.000000 0.000000 0.000000 
0.681356 49.619907 7.354182 0.000000 0.000000 0.000000 5.696179 -38.693288 3.983394 -80.928958 -18.251225 23.771500 83.321163 -0.482619 2.397794 -1.307715 3.646347 -1.755360 -9.736771 1.097820 0.880597 0.000000 0.000000 0.000000 5.516722 -38.744310 3.264517 -117.885513 -38.002759 -0.886449 116.237635 16.711729 -12.609122 40.501895 6.970646 28.091383 8.261736 1.938028 -3.040736 0.000000 0.000000 0.000000 4.628448 -38.219888 1.963143 30.520499 -5.571073 -7.869569 12.189491 1.039069 -3.350979 0.261203 -0.499969 1.144694 0.000000 0.000000 0.000000 12.155200 1.327216 -2.487698 -7.634887 19.040085 -13.006538 -25.755168 11.767409 4.206978 0.000000 0.000000 0.000000 13.520836 1.504473 -2.727870 12.932431 -11.240118 3.443474 0.675789 -1.356874 -4.845158 -58.049259 -0.571406 4.506533 47.387494 -19.094487 31.068072 0.000000 0.000000 0.000000 13.956963 1.456570 -2.670493 18.418324 20.525649 -8.009567 2.050244 6.474536 2.886530 -37.693239 -16.440504 -0.932502 -52.583041 49.844644 42.610559 0.000000 0.000000 0.000000 
